<svg xmlns="http://www.w3.org/2000/svg" width="191999.996" height="117333.294" viewBox="0 0 180 109.99996"><path d="M105.756 8.967l-2.38.607-9.567 23.987c-1.54 3.92-2.148 4.434-5.228 4.807V40h10.453v-1.633c-3.406-.42-3.546-1.074-2.846-3.314.56-1.867 1.166-3.546 1.68-4.992h8.958c.7 1.867 1.4 3.874 1.867 5.274.747 2.053.513 2.613-2.24 3.033V40h13.348v-1.633c-2.987-.373-3.548-.934-5.135-5.088-3.033-8.027-5.925-16.147-8.912-24.313zm35.463 0c-11.155 0-18.482 6.627-18.482 16.24 0 7.42 5.134 15.492 17.547 15.492 3.173 0 7.467-.934 8.68-1.214.793-1.633 2.007-5.18 2.613-7.466l-1.633-.7c-2.38 4.714-5.273 7.186-9.146 7.186-6.348 0-10.968-5.693-10.968-14.233 0-6.906 3.733-13.253 10.5-13.253 3.593 0 7.187 1.634 8.727 7.14l1.725-.326c-.327-2.893-.652-5.04-1.072-7.607-1.26-.28-4.714-1.26-8.494-1.26zm-112.368.7V11.3c3.406.327 3.826.654 3.826 4.854v17.22c0 4.386-.42 4.666-3.826 4.993V40h14.513v-1.633c-4.06-.327-4.433-.607-4.433-4.994V26h3.826c4.153 0 4.62.374 5.133 3.547h1.682V20.26h-1.68c-.515 2.986-.98 3.406-5.134 3.406h-3.826V13.354c0-1.54.187-1.633 1.82-1.633h2.332c2.613 0 3.873.328 4.853 1.354.794.887 1.4 2.24 1.868 4.012l1.633-.28c-.234-2.753-.466-6.347-.512-7.14H28.852zm28.04 0V11.3c3.405.327 3.825.793 3.825 4.526v17.92c0 3.873-.514 4.294-4.014 4.62V40h14.094v-1.633c-3.547-.327-3.967-.748-3.967-4.62v-6.813h.887c1.493 0 2.333.605 3.08 2.005 1.353 2.473 2.613 4.994 3.826 6.908 1.913 2.94 3.686 4.245 9.566 4.525.606 0 1.12.047 1.4.047l.28-1.492v-.002c-1.026-.374-1.82-.933-2.847-2.006-.886-.98-1.913-2.473-3.546-5.086-1.4-2.147-3.127-5.227-3.827-6.627 3.127-1.26 5.834-3.5 5.834-7.607 0-2.894-1.26-4.9-3.127-6.16-1.913-1.307-4.246-1.774-8.353-1.774H56.89zm12.458 1.866c2.613 0 5.507 1.82 5.507 6.768 0 2.38-.653 4.247-2.24 5.554-1.027.886-2.614 1.212-4.574 1.212H66.83v-11.34c0-.98.093-1.446.42-1.726.28-.28.933-.467 2.1-.467zm33 5.928h.138l3.453 10.126h-7.278c1.213-3.313 2.38-6.718 3.688-10.125zM10 53.003v4h160v-4H10zM30.834 69.5c-.093 2.38-.374 5.787-.56 9.193H32c.607-2.333 1.166-3.92 1.96-4.713.652-.793 1.493-1.26 5.366-1.26h1.588v22.073c0 3.967-.467 4.247-4.387 4.574V101H51.74v-1.633c-4.106-.327-4.574-.607-4.574-4.574V72.72h2.1c2.753 0 3.92.28 4.76 1.073.84.84 1.494 2.427 2.054 4.853l1.68-.093c-.234-2.987-.467-7.093-.514-9.053H56.08c-.793.887-1.447 1.166-2.66 1.166H34.66c-1.353 0-1.96-.14-2.66-1.166h-1.166zm67.227.514c-10.64 0-16.378 7.885-16.378 15.912 0 8.913 6.487 15.773 15.82 15.773 8.82 0 16.053-6.114 16.053-16.147 0-9.24-6.954-15.54-15.448-15.54h-.046zm-35.845.652V72.3c3.5.327 3.92.606 3.92 4.573v17.92c0 3.92-.42 4.247-3.92 4.574V101h14.047v-1.633c-3.5-.327-3.873-.654-3.873-4.574v-17.92c0-3.967.372-4.246 3.872-4.572v-1.634H62.215zm54.844 0v1.588c2.005.187 3.032.56 3.92 1.68.885 1.12.932 1.958.932 4.992v9.754c0 4.106-.28 6.16-.467 7.746-.186 1.96-1.26 2.754-3.873 2.94V101h11.434v-1.633c-3.453-.187-4.247-1.027-4.48-3.127-.14-1.4-.374-3.454-.374-7.56v-10.5h.14l19.413 23.287h2.24V82.94c0-4.154.28-6.347.42-7.794.234-2.1 1.215-2.752 3.735-2.892v-1.588h-11.387v1.588c3.453.187 4.386.98 4.62 2.986.14 1.354.372 3.546.372 7.7v8.214h-.14l-17.872-20.488h-8.634zm-19.886 1.307h.047c5.414 0 9.147 5.553 9.147 14.84 0 8.586-3.592 12.927-8.025 12.927-5.974 0-9.475-6.72-9.475-14.746 0-8.027 3.64-13.02 8.307-13.02z" color="#000" fill="#666"/></svg>
